PathFileType	4	(X/Y/Z)	markers
DataRate	CameraRate	NumFrames	NumMarkers	Units	OrigDataRate	OrigDataStartFrame	OrigNumFrames
200	200	6	49	mm	200	83	219
Frame#	Time	RASI			LASI			RPSI			LPSI			RTH1			RTH2			RTH3			RTH4			RLFC			RMFC			RTB1			RTB2			RTB3			RTB4			RLMAL			RMMAL			RCAL			RTOE			RMT5			LTH1			LTH2			LTH3			LTH4			LLFC			LMFC			LTB1			LTB2			LTB3			LTB4			LLMAL			LMMAL			LCAL			LTOE			LMT5			C7			T10			CLAV			RACR			LACR			RLEL			RFAradius			LLEL			LFAradius			RHJC			LHJC			RKJC			LKJC			RAJC			LAJC		
		X1	Y1	Z1	X2	Y2	Z2	X3	Y3	Z3	X4	Y4	Z4	X5	Y5	Z5	X6	Y6	Z6	X7	Y7	Z7	X8	Y8	Z8	X9	Y9	Z9	X10	Y10	Z10	X11	Y11	Z11	X12	Y12	Z12	X13	Y13	Z13	X14	Y14	Z14	X15	Y15	Z15	X16	Y16	Z16	X17	Y17	Z17	X18	Y18	Z18	X19	Y19	Z19	X20	Y20	Z20	X21	Y21	Z21	X22	Y22	Z22	X23	Y23	Z23	X24	Y24	Z24	X25	Y25	Z25	X26	Y26	Z26	X27	Y27	Z27	X28	Y28	Z28	X29	Y29	Z29	X30	Y30	Z30	X31	Y31	Z31	X32	Y32	Z32	X33	Y33	Z33	X34	Y34	Z34	X35	Y35	Z35	X36	Y36	Z36	X37	Y37	Z37	X38	Y38	Z38	X39	Y39	Z39	X40	Y40	Z40	X41	Y41	Z41	X42	Y42	Z42	X43	Y43	Z43	X44	Y44	Z44	X45	Y45	Z45	X46	Y46	Z46	X47	Y47	Z47	X48	Y48	Z48	X49	Y49	Z49
83	0.410000	696.269978	1021.890106	-1485.107855	699.162701	1025.171759	-1723.029476	533.292145	1060.005483	-1559.086134	532.397065	1059.945802	-1649.244730	635.587478	772.639095	-1416.457371	691.625544	758.751443	-1447.527639	672.097493	659.695864	-1445.806552	628.850560	665.674452	-1420.601156	593.606573	549.108544	-1424.817095	589.333506	512.110672	-1539.804036	555.349525	429.833122	-1388.297519	599.794880	425.184247	-1410.470498	595.698371	317.946131	-1414.914022	538.719450	328.186341	-1385.109043	525.561010	128.907334	-1396.660309	548.827278	131.028800	-1495.780622	459.338455	90.234882	-1449.758003	678.457048	65.838570	-1467.714019	645.280570	58.386881	-1374.187520	667.992116	771.399975	-1792.146772	700.743763	770.434873	-1755.076531	691.832003	668.773006	-1743.388217	648.470386	665.670708	-1791.706466	597.206554	532.232615	-1800.878654	566.910214	517.212153	-1678.375380	581.039110	441.826746	-1831.539093	618.726853	434.779555	-1802.148582	604.926701	334.135977	-1795.283497	554.390896	337.178393	-1835.839903	539.920972	124.521597	-1807.633195	533.219738	127.528987	-1709.906464	452.846805	87.064582	-1766.604329	670.407575	69.662503	-1723.253529	644.051238	57.980445	-1819.510995	531.401488	1559.611136	-1613.802854	489.550001	1347.216556	-1609.654587	645.415867	1501.673482	-1586.265796	543.498217	1564.487731	-1482.030346	536.930303	1560.785556	-1738.533780	549.056172	1501.134566	-1168.213788	612.097416	1556.756743	-915.056785	582.201511	1482.087306	-2053.594076	679.365647	1540.636315	-2294.315311	629.682534	952.898314	-1520.028165	631.769212	955.265549	-1691.653968	591.470039	530.609608	-1482.310565	582.058384	524.722384	-1739.627017	537.194144	129.968067	-1446.220466	536.570355	126.025292	-1758.769829
84	0.415000	696.286728	1021.926681	-1485.112740	699.263574	1025.153315	-1723.014099	533.337078	1059.974664	-1559.041302	532.326216	1059.974508	-1649.171842	635.557047	772.703056	-1416.423038	691.593517	758.699629	-1447.485823	672.114058	659.706508	-1445.798054	628.808406	665.676714	-1420.634900	593.628832	549.066277	-1424.820095	589.348556	512.106712	-1539.831460	555.330356	429.855964	-1388.332908	599.805656	425.211586	-1410.463408	595.771570	318.005617	-1414.845579	538.727576	328.179241	-1385.152416	525.568028	128.926954	-1396.665073	548.863342	131.026428	-1495.773187	459.358931	90.259039	-1449.760038	678.497330	65.836258	-1467.706172	645.280128	58.444255	-1374.133053	667.907980	771.345261	-1792.146037	700.670044	770.427946	-1755.076074	691.791401	668.745543	-1743.368591	648.529753	665.730112	-1791.762359	597.144919	532.220615	-1800.890868	566.917259	517.229756	-1678.326167	580.950200	441.761786	-1831.539434	618.708070	434.776143	-1802.186423	604.930349	334.132686	-1795.285046	554.331001	337.092745	-1835.800710	539.802557	124.606211	-1807.665107	533.162452	127.519466	-1709.927317	452.844436	87.101077	-1766.596909	670.400715	69.620625	-1723.206582	644.060116	57.980776	-1819.489323	531.446662	1559.929787	-1613.778568	489.639087	1347.157099	-1609.642590	645.472755	1501.674325	-1586.324536	543.555991	1564.408046	-1482.027080	537.014008	1560.777207	-1738.520481	549.052003	1501.159440	-1168.263289	612.126725	1556.780060	-915.041407	582.155900	1482.098598	-2053.569102	679.322772	1540.630024	-2294.297407	629.706649	952.926880	-1520.037450	631.854025	955.254443	-1691.649863	591.488694	530.586495	-1482.325778	582.031089	524.725186	-1739.608518	537.215685	129.976691	-1446.219130	536.482504	126.062839	-1758.796212
85	0.420000	696.232730	1021.906995	-1485.060220	699.243548	1025.174804	-1723.024780	533.337418	1060.023482	-1559.045508	532.335782	1059.987672	-1649.174721	635.521078	772.638957	-1416.451808	691.572346	758.659103	-1447.553688	672.144904	659.718360	-1445.770082	628.746965	665.606573	-1420.624911	593.658276	549.098944	-1424.826568	589.344687	512.140993	-1539.838829	555.240789	429.791092	-1388.295377	599.847654	425.259178	-1410.478012	595.757630	317.993757	-1414.877353	538.750705	328.127261	-1385.159261	525.551202	128.894788	-1396.658664	548.832173	131.035676	-1495.764255	459.319434	90.241629	-1449.765033	678.500373	65.837349	-1467.709014	645.329820	58.434042	-1374.196281	667.981958	771.351862	-1792.145778	700.583944	770.406888	-1755.039359	691.756271	668.741832	-1743.323731	648.452055	665.707481	-1791.763705	597.147987	532.224286	-1800.913518	566.968507	517.259812	-1678.340136	580.950200	441.761786	-1831.539434	618.661197	434.747275	-1802.148432	604.951799	334.104795	-1795.273667	554.336188	337.124177	-1835.839713	539.912148	124.538973	-1807.657142	533.227563	127.527515	-1709.942782	452.825040	87.073366	-1766.561886	670.384227	69.653442	-1723.221189	644.000696	58.001436	-1819.527333	531.522831	1559.945122	-1613.777744	489.632057	1347.235793	-1609.643134	645.472732	1501.714303	-1586.354703	543.584457	1564.455686	-1482.031818	537.068927	1560.800758	-1738.508105	549.141519	1501.156100	-1168.194308	612.154233	1556.813573	-915.037379	582.189755	1482.070940	-2053.516108	679.353849	1540.660707	-2294.290646	629.645831	952.907871	-1520.017029	631.817663	955.265083	-1691.671094	591.501481	530.619968	-1482.332698	582.058247	524.742049	-1739.626827	537.191688	129.965232	-1446.211459	536.569856	126.033244	-1758.799962
86	0.425000	696.265962	1021.853030	-1485.073258	699.254621	1025.149659	-1723.013155	533.127365	1060.009556	-1559.097421	532.323513	1059.925968	-1649.168998	635.666669	772.742561	-1416.435676	691.600975	758.675200	-1447.521270	672.149898	659.711144	-1445.802751	628.881950	665.727316	-1420.644193	593.620817	549.091589	-1424.834922	589.430610	512.176436	-1539.803880	555.298587	429.845811	-1388.296006	599.821235	425.230310	-1410.463816	595.621401	317.874770	-1414.864682	538.718433	328.139188	-1385.146571	525.612478	128.946958	-1396.673741	548.861621	131.053418	-1495.805836	459.330833	90.271577	-1449.791040	678.489705	65.868466	-1467.739695	645.310345	58.407796	-1374.191501	667.961614	771.391756	-1792.147022	700.680273	770.432553	-1755.111510	691.776191	668.746162	-1743.314648	648.504126	665.712924	-1791.783392	597.201327	532.212809	-1800.914953	566.923131	517.207342	-1678.349031	581.016452	441.793912	-1831.539034	618.679974	434.750697	-1802.110590	604.948449	334.153978	-1795.297545	554.416537	337.175165	-1835.878407	539.872633	124.529869	-1807.641517	533.157957	127.481640	-1709.910548	452.915041	87.166929	-1766.598997	670.370967	69.643846	-1723.265561	644.008814	57.949313	-1819.481768	531.557511	1559.913173	-1613.747351	489.659184	1347.186139	-1609.638994	645.430908	1501.656813	-1586.261366	543.593323	1564.635722	-1482.066642	537.063600	1560.808172	-1738.479861	549.183390	1501.155483	-1168.245651	612.222392	1556.838570	-915.093555	582.091638	1482.098543	-2053.593170	679.371124	1540.667998	-2294.299905	629.658210	952.861075	-1520.028417	631.814077	955.239096	-1691.666197	591.525713	530.634013	-1482.319401	582.062229	524.710075	-1739.631992	537.237050	130.000188	-1446.239789	536.515295	126.005754	-1758.776033
87	0.430000	696.310924	1021.890769	-1485.132334	699.242424	1025.149573	-1723.017924	533.260946	1060.013351	-1559.049271	532.297654	1059.953480	-1649.135434	635.538992	772.674731	-1416.420039	691.661622	758.743129	-1447.530669	672.088296	659.677247	-1445.805279	628.790516	665.639807	-1420.667255	593.627564	549.079407	-1424.823993	589.325790	512.151179	-1539.813232	555.260239	429.800406	-1388.272773	599.772716	425.212414	-1410.466681	595.722493	317.967156	-1414.856448	538.696486	328.171812	-1385.135666	525.605349	128.929675	-1396.646800	548.844999	131.032950	-1495.788133	459.361384	90.210134	-1449.744224	678.492292	65.820425	-1467.745138	645.314791	58.455479	-1374.189029	667.938100	771.397155	-1792.111233	700.637321	770.385468	-1755.039103	691.804529	668.795139	-1743.328262	648.432043	665.689388	-1791.720673	597.179331	532.208123	-1800.892347	566.943671	517.233036	-1678.346695	581.016452	441.793913	-1831.539034	618.726841	434.779573	-1802.148582	604.907469	334.126237	-1795.276957	554.263762	337.058820	-1835.801192	539.844692	124.673146	-1807.685416	533.198903	127.522181	-1709.919486	452.868715	87.207795	-1766.606154	670.390510	69.637502	-1723.284445	644.001021	58.037970	-1819.535123	531.522845	1559.945184	-1613.777744	489.662841	1347.318342	-1609.598715	645.479223	1501.678064	-1586.266791	543.644257	1564.628727	-1482.086196	537.093926	1560.836626	-1738.471568	549.255012	1501.180361	-1168.277103	612.202349	1556.833884	-915.071512	582.133853	1482.087734	-2053.567447	679.391591	1540.692318	-2294.298195	629.704783	952.909807	-1520.051146	631.819460	955.260590	-1691.653157	591.476677	530.615293	-1482.318613	582.061501	524.720579	-1739.619521	537.225174	129.981313	-1446.217467	536.521797	126.097663	-1758.802451
88	0.435000	696.342026	1021.897812	-1485.096957	699.214420	1025.171297	-1723.046350	533.192438	1060.016809	-1558.975323	532.366151	1059.984263	-1649.132937	635.550589	772.655096	-1416.419283	691.600958	758.675232	-1447.521269	672.171262	659.689386	-1445.801943	628.923297	665.732561	-1420.575014	593.621518	549.081100	-1424.809026	589.279140	512.119214	-1539.817978	555.242372	429.822513	-1388.277183	599.784967	425.199990	-1410.501324	595.697575	317.947345	-1414.891958	538.732699	328.151106	-1385.114715	525.594334	128.936740	-1396.658367	548.867162	131.055205	-1495.776943	459.329697	90.249161	-1449.739476	678.481164	65.834092	-1467.733671	645.333141	58.427400	-1374.192782	667.938083	771.397186	-1792.111234	700.680286	770.432529	-1755.111509	691.846634	668.781399	-1743.365260	648.477072	665.701739	-1791.737266	597.146773	532.212466	-1800.856761	566.974406	517.237376	-1678.362949	581.117405	441.838639	-1831.538045	618.714740	434.799534	-1802.149208	604.969937	334.001443	-1795.275397	554.341767	337.147483	-1835.801392	539.880829	124.509279	-1807.637406	533.235939	127.484786	-1709.941719	452.875902	87.214191	-1766.619025	670.405543	69.639948	-1723.218245	644.012864	57.987742	-1819.516127	531.564883	1559.988934	-1613.747533	489.684139	1347.255455	-1609.597813	645.537272	1501.769900	-1586.338344	543.646058	1564.600055	-1482.070250	537.171976	1560.791456	-1738.495893	549.237547	1501.219519	-1168.238756	612.239061	1556.851669	-915.084074	582.152998	1482.139958	-2053.510441	679.338165	1540.674987	-2294.301698	629.721736	952.901472	-1520.014072	631.793730	955.262792	-1691.658227	591.450329	530.600157	-1482.313502	582.060589	524.724921	-1739.609855	537.230748	129.995972	-1446.217655	536.558384	125.997032	-1758.789562
